<?xml version="1.0" standalone="no"?>
<!DOCTYPE svg PUBLIC "-//W3C//DTD SVG 20010904//EN"
 "http://www.w3.org/TR/2001/REC-SVG-20010904/DTD/svg10.dtd">
<svg version="1.0" xmlns="http://www.w3.org/2000/svg"
 width="274.000000pt" height="274.000000pt" viewBox="0 0 274.000000 274.000000"
 preserveAspectRatio="xMidYMid meet">
<metadata>
Created by potrace 1.14, written by Peter Selinger 2001-2017
</metadata>
<g transform="translate(0.000000,274.000000) scale(0.100000,-0.100000)"
fill="#000000" stroke="none">
<path d="M1325 2710 c-37 -9 -85 -31 -145 -66 -45 -26 -285 -164 -370 -212
-25 -14 -135 -77 -245 -140 -110 -64 -209 -120 -220 -126 -121 -66 -316 -181
-324 -190 -23 -29 -14 -83 19 -104 11 -7 224 -132 473 -279 248 -146 496 -292
550 -324 54 -33 102 -59 107 -59 6 0 10 -3 10 -7 0 -5 31 -23 69 -41 106 -51
179 -45 288 24 28 19 55 34 58 34 3 0 18 8 33 19 15 10 198 119 407 242 361
212 515 302 632 372 81 48 89 107 18 147 -16 10 -298 170 -625 357 -327 187
-604 343 -615 346 -35 11 -89 14 -120 7z"/>
<path d="M90 1462 c-35 -20 -70 -48 -76 -61 -26 -52 -9 -67 244 -216 130 -76
318 -187 417 -246 99 -59 199 -117 221 -130 23 -13 121 -71 219 -128 190 -112
234 -126 317 -103 20 5 180 94 355 198 357 210 589 346 773 454 145 85 173
108 173 145 0 33 -21 53 -96 94 l-58 32 -132 -77 c-73 -42 -152 -89 -177 -104
-25 -16 -61 -37 -80 -48 -19 -10 -98 -57 -175 -102 -126 -75 -267 -158 -313
-185 -10 -5 -65 -38 -124 -73 -115 -68 -151 -82 -216 -82 -54 0 -88 15 -222
95 -60 36 -119 71 -132 78 -13 7 -90 52 -173 101 -82 49 -195 116 -250 148
-55 32 -107 63 -115 68 -70 42 -307 180 -311 180 -2 0 -33 -17 -69 -38z"/>
<path d="M82 923 c-34 -21 -65 -47 -69 -58 -9 -26 -4 -57 10 -72 11 -11 226
-143 233 -143 3 0 338 -197 374 -220 8 -5 47 -28 85 -50 39 -22 87 -50 107
-63 90 -54 330 -194 402 -236 72 -41 85 -45 146 -45 80 -1 -15 -52 850 459
184 109 355 209 380 223 68 38 127 80 132 94 5 15 -2 46 -17 69 -11 18 -116
79 -135 79 -7 0 -49 -22 -94 -48 -45 -27 -137 -82 -206 -122 -69 -40 -165 -97
-213 -127 -49 -29 -91 -53 -93 -53 -2 0 -23 -11 -45 -26 -22 -14 -55 -33 -72
-43 -18 -10 -88 -52 -157 -93 -219 -130 -255 -148 -307 -154 -62 -7 -119 14
-239 87 -49 29 -102 61 -117 69 -16 8 -217 126 -447 263 -231 136 -425 247
-432 247 -7 0 -41 -17 -76 -37z"/>
</g>
</svg>
